<svg width="14" height="13" viewBox="0 0 14 13" fill="none" xmlns="http://www.w3.org/2000/svg">
<path d="M6.67645 0.696193C6.80985 0.434602 7.19528 0.434602 7.32868 0.696193L9.05556 4.08252C9.10853 4.1864 9.21093 4.2584 9.32938 4.27506L13.1908 4.81808C13.4891 4.86003 13.6082 5.21479 13.3923 5.41841L10.5982 8.0543C10.5125 8.13516 10.4734 8.25166 10.4936 8.36583L11.1532 12.0878C11.2042 12.3753 10.8923 12.5945 10.6255 12.4588L7.17179 10.7015C7.06585 10.6476 6.93928 10.6476 6.83333 10.7015L3.37958 12.4588C3.11278 12.5945 2.80096 12.3753 2.85191 12.0878L3.51152 8.36583C3.53175 8.25166 3.49264 8.13516 3.40693 8.0543L0.612785 5.41841C0.39694 5.21479 0.516046 4.86003 0.814337 4.81808L4.67575 4.27506C4.7942 4.2584 4.8966 4.1864 4.94957 4.08252L6.67645 0.696193Z" fill="#1A1A1A" stroke="#1A1A1A" stroke-linejoin="round"/>
</svg>
